<?xml version="1.0" encoding="iso-8859-1"?>
<!-- Generator: Adobe Illustrator 19.0.0, SVG Export Plug-In . SVG Version: 6.00 Build 0)  -->
<svg version="1.1" id="Capa_1" xmlns="http://www.w3.org/2000/svg" xmlns:xlink="http://www.w3.org/1999/xlink" x="0px" y="0px"
	 viewBox="0 0 512 512" style="enable-background:new 0 0 512 512;" xml:space="preserve">
<path style="fill:#17ACE8;" d="M268.008,125.774L177.955,5.703C174.953,2.099,170.451,0,165.947,0
	c-4.504,0-9.005,2.099-12.008,5.703c-61.954,82.848-42.868,57.405-90.053,120.07c-7.504,9.905-0.298,24.014,12.008,24.014h45.026
	v287.168c0,8.404,6.603,15.009,15.009,15.009h60.035c8.406,0,15.009-6.605,15.009-15.009V149.788H256
	C268.306,149.788,275.512,135.678,268.008,125.774z"/>
<path style="fill:#32D736;" d="M436.106,361.912h-45.026V74.744c0-8.406-6.603-15.009-15.009-15.009h-60.035
	c-8.406,0-15.009,6.603-15.009,15.009v287.168H256c-12.306,0-19.512,14.107-12.008,24.014l38.424,51.03l51.629,69.04
	c3.003,4.202,7.504,6.004,12.008,6.004c4.504,0,9.005-1.801,12.008-6.004l90.053-120.07
	C455.618,376.019,448.412,361.912,436.106,361.912z"/>
<path style="fill:#10BB67;" d="M448.114,385.925l-90.053,120.07c-3.003,4.202-7.504,6.004-12.008,6.004V59.734h30.018
	c8.406,0,15.009,6.603,15.009,15.009v287.168h45.026C448.412,361.912,455.618,376.019,448.114,385.925z"/>
<path style="fill:#1689FC;" d="M256,149.788h-45.026v287.168c0,8.404-6.603,15.009-15.009,15.009h-30.018V0
	c4.504,0,9.005,2.099,12.008,5.703l90.053,120.07C275.512,135.678,268.306,149.788,256,149.788z"/>
<g>
</g>
<g>
</g>
<g>
</g>
<g>
</g>
<g>
</g>
<g>
</g>
<g>
</g>
<g>
</g>
<g>
</g>
<g>
</g>
<g>
</g>
<g>
</g>
<g>
</g>
<g>
</g>
<g>
</g>
</svg>
