<?xml version="1.0" encoding="iso-8859-1"?>
<!-- Generator: Adobe Illustrator 19.0.0, SVG Export Plug-In . SVG Version: 6.00 Build 0)  -->
<svg version="1.1" id="Capa_1" xmlns="http://www.w3.org/2000/svg" xmlns:xlink="http://www.w3.org/1999/xlink" x="0px" y="0px"
	 viewBox="0 0 512 512" style="enable-background:new 0 0 512 512;" xml:space="preserve">
<path style="fill:#CCCCCC;" d="M366.933,358.4v110.933c0,18.85-15.283,34.133-34.133,34.133H93.867
	c-18.85,0-34.133-15.283-34.133-34.133V42.667c0-18.85,15.283-34.133,34.133-34.133H332.8c18.85,0,34.133,15.283,34.133,34.133
	V153.6"/>
<path style="fill:#29ABE2;" d="M59.733,76.8h307.2v358.4h-307.2V76.8z"/>
<path style="fill:#CCCCCC;" d="M298.667,460.8H435.2V512H298.667V460.8z"/>
<path style="fill:#F2C09A;" d="M430.933,234.667c-11.785,0-21.333,9.549-21.333,21.333v-12.8c0-11.785-9.549-21.333-21.333-21.333
	s-21.333,9.549-21.333,21.333v-12.8c0-11.785-9.549-21.333-21.333-21.333c-11.785,0-21.333,9.549-21.333,21.333v-72.533
	c0-11.785-9.549-21.333-21.333-21.333s-21.333,9.549-21.333,21.333v106.667c-23.561,0-42.667,19.106-42.667,42.667v0.853
	c0,15.317,8.201,29.457,21.495,37.052l24.747,14.114c8.346,4.787,13.491,13.67,13.491,23.288v18.56H435.2v-34.133
	c11.221-22.451,17.067-47.198,17.067-72.294V256C452.267,244.215,442.718,234.667,430.933,234.667z"/>
<path style="fill:#0071BC;" d="M281.6,469.333v-68.267h170.667v68.267H281.6z"/>
<path d="M85.333,426.667H102.4v17.067H85.333V426.667z"/>
<path d="M102.4,247.467h17.067v17.067H102.4V247.467z"/>
<path d="M187.733,34.133H204.8V51.2h-17.067V34.133z"/>
<path d="M221.867,34.133h17.067V51.2h-17.067V34.133z"/>
<path d="M332.8,0H93.867C70.315,0.026,51.226,19.115,51.2,42.667v426.667c0.026,23.552,19.115,42.641,42.667,42.667H307.2v-34.133
	h119.467V512h17.067v-34.133h8.533c4.71,0,8.533-3.823,8.533-8.533v-68.267c0-4.71-3.823-8.533-8.533-8.533h-8.533v-23.62
	c11.196-23.151,17.033-48.529,17.067-74.24V256c0-16.495-13.372-29.867-29.867-29.867c-5.538,0.017-10.957,1.596-15.642,4.54
	c-6.707-14.839-24.183-21.436-39.023-14.72c-0.273,0.119-0.538,0.247-0.802,0.375V42.667C375.441,19.115,356.352,0.026,332.8,0z
	 M93.867,17.067H332.8c14.14,0,25.6,11.46,25.6,25.6v25.6H68.267v-25.6C68.267,28.527,79.727,17.067,93.867,17.067z
	 M290.133,494.933H93.867c-14.14,0-25.6-11.46-25.6-25.6v-384H358.4v118.195c-8.064-3.994-17.536-3.994-25.6,0v-45.662
	c0-16.495-13.372-29.867-29.867-29.867s-29.867,13.372-29.867,29.867v98.901c-28.143,5.018-46.882,31.898-41.865,60.032
	c2.671,14.993,11.819,28.049,24.994,35.695l24.747,14.123c5.683,3.268,9.19,9.327,9.19,15.889v10.027H281.6
	c-4.71,0-8.533,3.823-8.533,8.533v25.6h-153.6v17.067h153.6v25.6c0,4.71,3.823,8.533,8.533,8.533h8.533V494.933z M443.733,460.8
	h-153.6v-51.2h153.6V460.8z M388.267,230.4c7.066,0,12.8,5.734,12.8,12.8l0,0v29.867h17.067V256c0-7.066,5.734-12.8,12.8-12.8
	c7.066,0,12.8,5.734,12.8,12.8v38.639c-0.043,23.774-5.589,47.215-16.213,68.48c-0.572,1.186-0.87,2.492-0.853,3.814v25.6H307.2
	v-10.027c-0.009-12.698-6.81-24.414-17.826-30.72l-24.747-14.131c-10.812-6.298-17.374-17.946-17.161-30.456
	c0.06-15.514,10.573-29.039,25.6-32.922V307.2h17.067V157.867c0-7.066,5.734-12.8,12.8-12.8s12.8,5.734,12.8,12.8v115.2H332.8V230.4
	c0-7.066,5.734-12.8,12.8-12.8c7.066,0,12.8,5.734,12.8,12.8v42.667h17.067V243.2C375.467,236.134,381.201,230.4,388.267,230.4z"/>
<path d="M153.6,203.563v9.771h17.067v-9.771c12.8-3.985,19.942-17.587,15.966-30.379c-1.971-6.323-6.434-11.571-12.365-14.524
	l-16.631-8.32c-3.601-1.801-5.06-6.178-3.26-9.779c1.229-2.466,3.755-4.028,6.511-4.028h2.492c4.019,0.009,7.279,3.268,7.287,7.287
	v1.246h17.067v-1.246c-0.043-10.607-6.946-19.959-17.067-23.117v-9.771H153.6v9.771c-12.8,3.985-19.942,17.587-15.966,30.379
	c1.971,6.323,6.434,11.571,12.365,14.524l16.631,8.32c3.601,1.801,5.06,6.178,3.26,9.779c-1.229,2.466-3.755,4.028-6.511,4.028
	h-2.492c-4.019-0.009-7.279-3.268-7.287-7.287V179.2h-17.067v1.246C136.576,191.053,143.479,200.405,153.6,203.563z"/>
<path d="M93.867,281.6H204.8v17.067H93.867V281.6z"/>
<path d="M93.867,315.733H204.8V332.8H93.867V315.733z"/>
<path d="M93.867,349.867H204.8v17.067H93.867V349.867z"/>
<path d="M136.533,247.467H204.8v17.067h-68.267V247.467z"/>
<path d="M204.8,460.8h17.067v17.067H204.8V460.8z"/>
<path d="M409.6,426.667h17.067v17.067H409.6V426.667z"/>
<g>
</g>
<g>
</g>
<g>
</g>
<g>
</g>
<g>
</g>
<g>
</g>
<g>
</g>
<g>
</g>
<g>
</g>
<g>
</g>
<g>
</g>
<g>
</g>
<g>
</g>
<g>
</g>
<g>
</g>
</svg>
